<svg clip-rule="evenodd" stroke-linecap="round" stroke-linejoin="round" stroke-miterlimit="10" viewBox="0 0 16 16" xmlns="http://www.w3.org/2000/svg"><g fill="#ed6d48"><path d="m1 1v14h14v-14zm1 1h12v12h-12z"/><g><path d="m10.8438 8.90625-1.93755 1.93755 2.62495 2.1562 1.4688-1.4688zm-.0626 1.49995c.3472.426.5537.6682.875 1.0626l-.1874.1874-1.0626-.875z"/><path d="m10.8438 8.09375-2.75005 2.75005c-.19526.1952-.19526.4922 0 .6874.19526.1953.52349.1953.71875 0l2.7187-2.7187c.1953-.19526.1953-.52349 0-.71875-.1952-.19526-.4922-.19526-.6874 0zm1.8124 2.75005-1.8124 1.8124c-.1953.1953-.1953.4923 0 .6876.1952.1952.4922.1952.6874 0l1.8126-1.8126c.1952-.1952.1952-.4922 0-.6874-.1953-.1953-.4923-.1953-.6876 0z"/><path d="m2.5 2.5v3l6.09375 5.1562c.2108.1784.50913.1484.6875-.0624.17837-.2109.1483-.5092-.0625-.68755l-5.71875-4.84375v-1.5625h1.5625l4.84375 5.71875c.17835.2108.47665.24087.68755.0625.2108-.17837.2408-.4767.0624-.6875l-5.1562-6.09375z"/></g></g></svg>