<svg clip-rule="evenodd" stroke-linecap="round" stroke-linejoin="round" stroke-miterlimit="10" viewBox="0 0 16 16" xmlns="http://www.w3.org/2000/svg"><g fill="#ed6d48"><path d="m1 1v14h14v-14zm1 1h12v12h-12z"/><path d="m8 11.59c1.98 0 3.59-1.61 3.59-3.59s-1.61-3.59-3.59-3.59-3.59 1.61-3.59 3.59 1.61 3.59 3.59 3.59zm0-6.58c1.65 0 2.99 1.34 2.99 2.99s-1.34 2.99-2.99 2.99-2.99-1.34-2.99-2.99 1.34-2.99 2.99-2.99z"/><path d="m8 10.18c1.2 0 2.18-.98 2.18-2.18s-.98-2.18-2.18-2.18-2.18.98-2.18 2.18.98 2.18 2.18 2.18zm0-3.76c.87 0 1.58.71 1.58 1.58s-.71 1.58-1.58 1.58-1.58-.71-1.58-1.58.71-1.58 1.58-1.58z"/><path d="m8 13c2.76 0 5-2.24 5-5s-2.24-5-5-5-5 2.24-5 5 2.24 5 5 5zm0-9.4c2.43 0 4.4 1.97 4.4 4.4s-1.97 4.4-4.4 4.4-4.4-1.97-4.4-4.4 1.97-4.4 4.4-4.4z"/><path d="m8 7.52c-.2651 0-.48.2149-.48.48s.2149.48.48.48.48-.2149.48-.48-.2149-.48-.48-.48z"/></g></svg>