<svg clip-rule="evenodd" stroke-linecap="round" stroke-linejoin="round" stroke-miterlimit="10" viewBox="0 0 24 24" xmlns="http://www.w3.org/2000/svg"><g fill="#ed6d48"><path d="m15.4726 9.00076c-1.4937-.07473-3.3667 1.00264-4.898 3.08094-2.04571 2.7766-2.22376 5.6108-.67149 6.7545 1.55229 1.1437 4.19529.1301 6.24099-2.6465 2.0417-2.7711 2.2237-5.5713.6715-6.71494-.3881-.28592-.8451-.44909-1.343-.474zm-1.1455 1.02704c.7739-.28364 1.4674-.25131 1.975.1185 1.1682.8522.9182 3.1973-.8295 5.5694-1.7397 2.3612-3.8837 3.2958-5.056 2.449-.87854-.6389-.94438-2.1793-.158-3.9105.1113.3182.3095.6314.632.869.8527.6282 1.8676.4619 2.528-.4345.6524-.8854.5366-1.8997-.316-2.528-.3771-.2778-.7955-.42-1.185-.395.7998-.8738 1.6355-1.4544 2.4095-1.7379z"/><path d="m20.564 12.7964c-1.4944-.0753-3.3667 1.0027-4.898 3.081-2.0457 2.7766-2.2292 5.5673-.6714 6.715 1.5522 1.1436 4.1952.1696 6.2409-2.607 2.0417-2.7711 2.2238-5.6108.6715-6.7545-.3894-.2869-.8448-.4094-1.343-.4345zm-1.1455.9875c.776-.2821 1.4667-.2165 1.975.158 1.1533.8497.9102 3.1688-.8295 5.53-1.7437 2.3666-3.8987 3.2932-5.056 2.449-.8799-.6484-.9798-2.1453-.1975-3.871.1169.3222.3491.5919.6715.8295.8527.6282 1.8676.4619 2.528-.4345.6524-.8855.4972-1.8998-.3555-2.528-.3771-.2779-.786-.382-1.185-.3555.8019-.8765 1.673-1.4954 2.449-1.7775z"/><path d="m2.375 1c-.91572 0-1.375.46384-1.375 1.375v5.25c0 .90661.45928 1.375 1.375 1.375h5.25c.92027 0 1.375-.46839 1.375-1.375v-5.25c0-.90661-.45473-1.375-1.375-1.375zm.0625.78125h5.15625c.40547 0 .625.228.625.65625v5.125c0 .4328-.21953.65625-.625.65625h-5.15625c-.41458 0-.65625-.22345-.65625-.65625v-5.125c0-.42825.24167-.65625.65625-.65625z"/><path d="m5.03125 2.71875c-1.24829 0-2.28125 1.03296-2.28125 2.28125 0 1.24374 1.04207 2.28125 2.28125 2.28125 1.24829 0 2.28125-1.03296 2.28125-2.28125 0-1.24374-1.03751-2.28125-2.28125-2.28125zm0 .71875c.85194 0 1.5625.71056 1.5625 1.5625 0 .85649-.70601 1.5625-1.5625 1.5625-.84738 0-1.5625-.71056-1.5625-1.5625 0-.85649.71056-1.5625 1.5625-1.5625z"/></g></svg>