<svg clip-rule="evenodd" stroke-linecap="round" stroke-linejoin="round" stroke-miterlimit="10" viewBox="0 0 24 24" xmlns="http://www.w3.org/2000/svg"><path d="m8.28064 19.6232c.34251 0 .55329-.1669.62355-.4743.89581-2.8279 2.34491-3.8291 4.79521-3.8291l.3513.0087v3.232c0 .5269.3776.9134.9046.9134.3864 0 .7026-.1581 1.0714-.5006l6.543-6.1653c.3337-.3074.4303-.6148.4303-.8783 0-.2722-.0966-.5708-.4303-.887l-6.543-6.12134c-.4039-.37765-.6674-.54451-1.0538-.54451-.5446 0-.9222.43034-.9222.95728v3.20559h-.2635c-2.7313 0-4.96205 1.58088-5.48021 4.85668h-.07905c-.56207-3.55688-2.86307-4.85668-5.26946-4.85668h-.4479c-1.07146 0-1.51058.41278-1.51058 1.57208v3.9696c0 .8958.43912 1.2823 1.44032 1.2823h.70259c2.38004 0 3.88184 1.4666 4.51418 3.7764.07026.3162.28103.4831.62355.4831z" fill="#ed6d48"/></svg>