<svg clip-rule="evenodd" stroke-linecap="round" stroke-linejoin="round" stroke-miterlimit="10" viewBox="0 0 24 24" xmlns="http://www.w3.org/2000/svg"><g fill="#ed6d48"><path d="m1 20c0-1.6569 1.34315-3 3-3s3 1.3431 3 3-1.34315 3-3 3-3-1.3431-3-3z"/><path d="m23 1-6.7188 1.78125 1.75 1.75-12.06245 12.06255c.60435.3504 1.08703.8331 1.4375 1.4374l12.06255-12.06245 1.75 1.75z"/><path d="m19.2982 14.3685c2.9166 2.9167-.2917 6.7083-.2917 6.7083s.875-2.0416-1.75-4.6666l-1.1667 1.1666-.0898-4.5768 4.4648.2018z"/><path d="m9.6315 4.70183c-2.91667-2.91668-6.70835.29166-6.70835.29166s2.04167-.875 4.66668 1.75001l-1.16667 1.16667 4.57684.08983-.2018-4.46484z"/></g></svg>