<svg clip-rule="evenodd" stroke-linecap="round" stroke-linejoin="round" stroke-miterlimit="10" viewBox="0 0 24 24" xmlns="http://www.w3.org/2000/svg"><g fill="#ed6d48"><path d="m8 14h8v3h-8z"/><path d="m10 9c0-1.10457.8954-2 2-2s2 .89543 2 2c0 1.1046-.8954 2-2 2s-2-.8954-2-2z"/><path d="m11.5 9h1v6h-1z"/><path d="m8.6875 18.1562c-.21372.1749-.23736.5051-.0625.7188l3.375 4.125 3.375-4.125c.1749-.2137.1512-.5439-.0625-.7188-.2137-.1748-.5126-.1512-.6875.0626l-2.125 2.625c0-.732 0-1.6127 0-1.8438 0-.2761-.2239-.5-.5-.5s-.5.2239-.5.5v1.8438l-2.125-2.625c-.17486-.2138-.47378-.2374-.6875-.0626z" opacity="0"/><path d="m18.875 8.625c-.2137-.17486-.5439-.15122-.7188.0625-.1748.21372-.1512.51264.0626.6875l2.625 2.125c-1.242 0-4.2326 0-4.8438 0-.2761 0-.5.2239-.5.5s.2239.5.5.5h4.8438l-2.625 2.125c-.2138.1749-.2374.4738-.0626.6875.1749.2137.5051.2374.7188.0625l4.125-3.375z"/><path d="m12 1-3.375 4.125c-.17486.21372-.15122.54389.0625.71875s.51264.15122.6875-.0625l2.125-2.625v1.84375c0 .27614.2239.5.5.5s.5-.22386.5-.5c0-.23114 0-1.1118 0-1.84375l2.125 2.625c.1749.21372.4738.23736.6875.0625s.2374-.50503.0625-.71875z" opacity="0"/><path d="m5.125 8.625-4.125 3.375 4.125 3.375c.21372.1749.54389.1512.71875-.0625s.15122-.5126-.0625-.6875l-2.625-2.125h4.84375c.27614 0 .5-.2239.5-.5s-.22386-.5-.5-.5c-.61124 0-3.60182 0-4.84375 0l2.625-2.125c.21372-.17486.23736-.47378.0625-.6875s-.50503-.23736-.71875-.0625z"/></g></svg>