<svg clip-rule="evenodd" stroke-linecap="round" stroke-linejoin="round" stroke-miterlimit="10" viewBox="0 0 24 24" xmlns="http://www.w3.org/2000/svg"><path d="m22.0833 11.5417c-.5062 0-.9166.4104-.9166.9166 0 .5063.4104.9167.9166.9167.5063 0 .9167-.4104.9167-.9167 0-.5062-.4104-.9166-.9167-.9166zm-20.16663 0c-.50626 0-.91667.4104-.91667.9166 0 .5063.41041.9167.91667.9167s.91666-.4104.91666-.9167c0-.5062-.4104-.9166-.91666-.9166zm10.08333-10.08337c-.5063 0-.9167.41041-.9167.91667s.4104.91667.9167.91667.9167-.41041.9167-.91667-.4104-.91667-.9167-.91667zm7.1298 17.21317c-.5062 0-.9166.4104-.9166.9167 0 .5062.4104.9166.9166.9166.5063 0 .9167-.4104.9167-.9166 0-.5063-.4104-.9167-.9167-.9167zm-14.25963-14.25967c-.50626 0-.91667.41041-.91667.91667s.41041.91667.91667.91667.91666-.41041.91666-.91667-.4104-.91667-.91666-.91667zm0 14.25967c-.50626 0-.91667.4104-.91667.9167 0 .5062.41041.9166.91667.9166s.91666-.4104.91666-.9166c0-.5063-.4104-.9167-.91666-.9167zm14.25963-14.25967c-.5062 0-.9166.41041-.9166.91667s.4104.91667.9166.91667c.5063 0 .9167-.41041.9167-.91667s-.4104-.91667-.9167-.91667zm-7.1298 1.62984c-3.53742 0-6.41667 2.87925-6.41667 6.41663 0 2.4888 1.44925 4.7401 3.66667 5.7925v2.4575c0 1.0111.8223 1.8334 1.8333 1.8334h1.8334c1.011 0 1.8333-.8223 1.8333-1.8334v-2.4575c2.2174-1.0524 3.6667-3.3037 3.6667-5.7925 0-3.53738-2.8793-6.41663-6.4167-6.41663zm1.5272 10.73323-.6105.2154v3.718h-1.8334v-3.718l-.6105-.2154c-1.8278-.6472-3.05613-2.3824-3.05613-4.3166 0-2.52722 2.05608-4.5833 4.58333-4.5833 2.5272 0 4.5833 2.05608 4.5833 4.5833 0 1.9342-1.2283 3.6694-3.0561 4.3166z" fill="#ed6d48"/></svg>