<svg clip-rule="evenodd" stroke-linecap="round" stroke-linejoin="round" stroke-miterlimit="10" viewBox="0 0 24 24" xmlns="http://www.w3.org/2000/svg" xmlns:xlink="http://www.w3.org/1999/xlink"><defs><path id="a" d="m12 7c0-2.76142 2.2386-5 5-5s5 2.23858 5 5-2.2386 5-5 5-5-2.23858-5-5z"/><mask id="b" height="12" maskUnits="userSpaceOnUse" width="12" x="11" y="1"><path clip-rule="evenodd" d="m11 1h12v12h-12z" fill="#fff"/><use clip-rule="evenodd" fill-rule="evenodd" xlink:href="#a"/></mask></defs><path d="m1 15v8h22v-8zm10 1h2l2 3-2 3h-2l2-3zm4 0h7v6h-7l2-3z" fill="#ed6d48"/><g fill="none" stroke="#ed6d48" stroke-linejoin="round"><use mask="url(#b)" opacity="0" stroke-linecap="butt" stroke-width="2" xlink:href="#a"/><path d="m17 7v-4" opacity="0" stroke-linecap="round"/><path d="m20 7h-3" opacity="0" stroke-linecap="round"/></g><path d="m5 3h2v8h-2z" fill="#ed6d48" opacity="0"/><path d="m2 6h8v2h-8z" fill="#ed6d48" opacity="0"/></svg>