<svg clip-rule="evenodd" stroke-linecap="round" stroke-linejoin="round" stroke-miterlimit="10" viewBox="0 0 128 128" xmlns="http://www.w3.org/2000/svg"><path d="m63.6562 15.625c-.5367 0-.9401.0633-1.375.1875.2687-.0701.5043-.0938.9063-.0937-.4549 0-.8837.0668-1.3125.2187l-42.6875 15.125c-.155.0549-.3217.114-.4687.1875-.1383.0537-.2724.1049-.4376.1875-.081.0405-.1407.1104-.2187.1563-.0289.0144-.0652.0474-.0937.0624-.0886.0457-.1903.1111-.3126.1876-.1108.0693-.2059.1692-.3124.25-.0183.0138-.0444.017-.0626.0312-.0114.0077-.0198.0235-.0312.0312-.0228.0155-.0399.0467-.0625.0626-.1918.1345-.3542.3518-.5313.5312l-.0312-.0312-.0625.0937h-.0313c-.0339.034-.0301.0279-.0624.0625-.0934.0864-.1652.1864-.25.2812-.0102.0142-.0212.0169-.0313.0313-.006.0085.0059.0227 0 .0313-.0078.0112-.0236.0199-.0313.0312-.0149.0177-.0166.0445-.0312.0625-.0329.0404-.0624.0833-.0938.125-.0053.0106-.1008.1003-.0937.0937-.0908.1077-.2074.1895-.2813.3126l-10.5937 17.6874-.0625.0938c-1.50399 2.4433-1.30842 5.6101.59375 7.75 1.23676 1.4439 3.04522 2.3125 5.03125 2.3125.751 0 1.4638-.1442 2.1562-.375l1.875-.6563v29.9376c0 2.8685 1.7906 5.3781 4.5 6.2812l42.625 15.094c.0499.021.0693.041.125.062.197.074.4409.08.6563.125.2378.057.4778.164.7187.188.2649.026.4447.031.7188.031h.5312c.451 0 .7775-.061 1.125-.156.1229-.034.2906-.082.2188-.063-.2803.077-.5903.125-1 .125.4549 0 .9149-.067 1.3438-.219l42.6872-15.1245c2.629-.8754 4.438-3.4574 4.438-6.25v-27.125l6.218-2.1875c1.877-.7026 3.359-2.1756 4.032-3.9688.713-1.9026.465-4.0992-.625-5.8437l-10.625-17.7187c-.02-.0476-.072-.0783-.094-.125-.004-.0078.004-.0235 0-.0313-.029-.0438-.04-.0279-.062-.0625-.006-.0093.005-.022 0-.0312-.003-.0052-.029.005-.032 0-.008-.0154.008-.0473 0-.0626-.036-.0557-.035-.0525-.062-.0937-.054-.0888-.071-.1103-.125-.1875-.076-.1186-.162-.2331-.25-.3438-.094-.1174-.143-.2678-.25-.375-.056-.0555-.344-.3437-.344-.3437-.375-.3751-.832-.6759-1.313-.875-.009-.0039-.021.0038-.031 0-.028-.0171-.065-.0149-.093-.0313-.09-.0338-.19-.0351-.282-.0624-.022-.0085-.04-.0232-.062-.0313-.123-.0454-.217-.1535-.344-.1875v-.0312l-42.6875-15.125c-.4288-.1519-.8888-.2188-1.3437-.2188 0 0-1.257 0-1.3126 0zm0 4h.1563.375.1563.1874.1876.0937.0625.0938l42.6872 15.125c.089 0 .099.0938.188.0938s.192-.0265.281.0624l.063.0938h.093l.094.0938.094.0937c.089.0889.098.0986.187.1875v.0625c0 .0889.063.0986.063.1875s.093.0986.093.1875l.094.0937 10.688 17.7813c.444.7115.517 1.601.25 2.3125s-.883 1.3269-1.594 1.5938l-8.906 3.125v29.9687c0 1.0672-.714 2.113-1.782 2.4687l-42.687 15.1248c-.0889 0-.2548.094-.3438.094-.0889 0-.0937 0-.0937 0-.1779 0-.2596 0-.4375 0s-.4471-.005-.625-.094c-.0889 0-.1611-.093-.25-.093l-42.6875-15.0942c-1.0672-.3558-1.7813-1.3439-1.7813-2.5v-35.5626l-7.125 2.4688c-.2668.0889-.6394.1875-.9062.1875-.8004 0-1.49765-.3462-2.03125-.9687-.71147-.8004-.81003-2.053-.1875-3.0313l10.68755-17.7813c.0889.0001.0937-.0937.0937-.0937.0889 0 .0673-.0986.1563-.1875l.0937-.0938c0-.0889.0986-.0673.1875-.1562l.0938-.0938c.0889-.0889.161-.0985.25-.1874l.0937-.0938c.1779-.0889.2596-.0673.4375-.1562l42.6875-15.125c.0889 0 .2909-.0938.4687-.0938z"/><g><path d="m20.4223 93.0812 42.6881 15.1188c.0889 0 .1778.089.2668.089.1778.089.4446.089.6225.089h.4447.0889c.089 0 .2668-.089.3558-.089l42.6879-15.1188c1.067-.3558 1.779-1.423 1.779-2.4902v-29.9705l8.893-3.1127c.712-.2668 1.334-.8893 1.601-1.6008s.178-1.6008-.267-2.3123l-10.672-17.7867-.089-.0889c0-.0889-.089-.0889-.089-.1779 0-.0889-.089-.0889-.089-.1778 0 0 0 0 0-.089-.089-.0889-.089-.0889-.178-.1778l-.088-.089-.089-.0889h-.089l-.089-.0889c-.089-.089-.178-.089-.267-.089s-.089-.0889-.178-.0889l-42.688-15.1187s0 0-.0889 0h-.089-.0889c-.0889 0-.0889 0-.1779 0-.0889 0-.0889 0-.1778 0-.089 0-.089 0-.1779 0s-.1779 0-.3558 0c-.0889 0-.0889 0-.1778 0-.1779 0-.3558.0889-.4447.0889l-42.688 15.1187c-.1779.089-.2668.089-.4447.1779l-.0889.0889c-.089.089-.1779.089-.2668.1779l-.089.0889c-.0889.089-.1778.089-.1778.1779l-.089.0889c-.0889.089-.0889.1779-.1778.1779 0 0 0 .0889-.089.0889l-10.67199 17.7867c-.62254.9783-.5336 2.2234.17787 3.0238.5336.6225 1.24506.9782 2.04542.9782.2668 0 .6226-.0889.8894-.1778l7.1147-2.4902v35.5734c0 1.1561.7114 2.1344 1.7786 2.4901z" fill="#ed6d48"/><g fill="#fff"><path d="m113.358 53.5948-37.5301 13.34-7.9151-13.1621 37.5302-13.3401z"/><path d="m66.6677 25.8475 32.0161 11.3835-32.0161 11.3835z"/><path d="m66.6677 61.9545 5.6918 9.5159c.5336.8893 1.4229 1.334 2.3122 1.334.2668 0 .6226-.0889.8894-.1779l28.4589-10.0494v26.1464l-37.3523 13.2515z"/><path d="m23.9797 40.9662 37.352 13.2511v47.6687l-37.352-13.2514z"/></g></g></svg>