<svg clip-rule="evenodd" stroke-linecap="round" stroke-linejoin="round" stroke-miterlimit="10" viewBox="0 0 24 24" xmlns="http://www.w3.org/2000/svg"><g fill="#ed6d48"><path d="m1 4c0-.55228.44772-1 1-1s1 .44772 1 1-.44772 1-1 1-1-.44772-1-1z"/><path d="m7 1h10v6h-10z"/><path d="m1 17h10v6h-10z"/><path d="m13 10h10v6h-10z"/><path d="m2 3.5v1h5v-1z"/><path d="m17 3.5v1c2.075 0 2.5 1.27485 2.5 5.5h1c0-2.30999-.0699-3.27206-.4062-4.28125-.4784-1.43508-1.478-2.21875-3.0938-2.21875z"/><path d="m17.5 16c0 1.8889-1.2482 2.9072-3.5 3.3125-.9122.1642-1.6924.1875-3 .1875v1c1.3643 0 2.1998-.041 3.1875-.2188 2.6726-.481 4.3125-1.8082 4.3125-4.2812z"/><path d="m13 12.5c-4.74352 0-7.5 1.8377-7.5 4.5h1c0-2.0043 2.24352-3.5 6.5-3.5z"/><g><path d="m3.19545 12.6591c-.30303 0-.57121-.103-.80454-.3091s-.41364-.4962-.54091-.8705c-.12727-.3742-.19091-.8068-.19091-1.2977 0-.49089.06364-.92347.19091-1.29771s.30758-.66439.54091-.87045.50151-.30909.80454-.30909v.48181c-.2 0-.37651.08258-.52954.24773s-.27197.39849-.35682.7c-.08485.30152-.12727.65076-.12727 1.04771 0 .397.04242.7462.12727 1.0477.08485.3016.20379.5349.35682.7.15303.1652.32954.2478.52954.2478z"/><path d="m4.35455 12.1773c.2 0 .37651-.0826.52954-.2478.15303-.1651.27197-.3984.35682-.7.08485-.3015.12727-.6507.12727-1.0477 0-.39695-.04242-.74619-.12727-1.04771-.08485-.30151-.20379-.53485-.35682-.7s-.32954-.24773-.52954-.24773v-.48181c.30303 0 .57121.10303.80454.30909s.41364.49621.54091.87045.19091.80682.19091 1.29771c0 .4909-.06364.9235-.19091 1.2977-.12727.3743-.30758.6644-.54091.8705s-.50151.3091-.80454.3091z"/></g></g></svg>